<?xml version="1.0" encoding="UTF-8"?><svg id="Layer_1" xmlns="http://www.w3.org/2000/svg" viewBox="0 0 401.93 158.36"><defs><style>.cls-1{fill:#410f27;}.cls-1,.cls-2,.cls-3,.cls-4,.cls-5,.cls-6,.cls-7,.cls-8,.cls-9,.cls-10,.cls-11,.cls-12,.cls-13,.cls-14,.cls-15,.cls-16{stroke-width:0px;}.cls-2{fill:#bc1f42;}.cls-3{fill:#0e735f;}.cls-4{fill:#65c6b9;}.cls-5{fill:#ef3942;}.cls-6{fill:#0ca889;}.cls-17{fill:#07a889;font-size:13.75px;}.cls-17,.cls-18{font-family:Poppins-Light, Poppins;font-weight:300;}.cls-7{fill:#8ed2c8;}.cls-8{fill:#058f91;}.cls-9{fill:#58aac1;}.cls-10,.cls-18,.cls-19{fill:#10313a;}.cls-11{fill:#f05560;}.cls-18{font-size:11.92px;}.cls-12{fill:#064840;}.cls-13{fill:#991b2e;}.cls-14{fill:#84153b;}.cls-19{font-family:Poppins-Bold, Poppins;font-size:24.75px;font-weight:700;}.cls-15{fill:#245362;}.cls-16{fill:#fff;}</style></defs><rect id="MAIN_GRAPHIC_WHITE_BACK" class="cls-16" width="401.93" height="158.36"/><text class="cls-19" transform="translate(119.21 42.81)"><tspan x="0" y="0">DERRICK MATHIS</tspan></text><text class="cls-17" transform="translate(119.21 59.29)"><tspan x="0" y="0">PRODUCTION MANAGER</tspan></text><g id="MAIN_PHONE"><path class="cls-10" d="M129.26,78.1c-.77-.15-1.55-.7-2.39-1.51l-.99-.99c-.85-.85-1.4-1.58-1.51-2.39-.15-.99.37-1.77.96-2.32.15-.15.3-.26.48-.33.22-.07.48,0,.66.18.33.4.66.85.96,1.25.11.18.15.4.11.59-.07.15-.15.26-.29.37-.26.18-.41.48-.41.81.04.3.18.55.41.74l.7.7c.18.22.44.37.74.41.33.04.63-.15.85-.41.11-.11.22-.22.37-.29.22-.04.4,0,.59.11.41.33.85.63,1.25.96.18.18.26.41.18.66-.07.18-.18.33-.33.48-.7.74-1.55,1.11-2.32.99h0ZM128.56,66.17c-4.57,0-8.25,3.68-8.25,8.25s3.68,8.25,8.25,8.25,8.25-3.68,8.25-8.25-3.68-8.25-8.25-8.25"/></g><g id="MAIN_EMAIL"><path class="cls-10" d="M128.58,89.5c-4.56,0-8.25,3.69-8.25,8.25s3.69,8.25,8.25,8.25,8.25-3.69,8.25-8.25-3.69-8.25-8.25-8.25ZM123.55,93.8h10.04s.04.01.05.03c0,.02,0,.04-.01.06l-3.38,3.2h0s-1.01.96-1.01.96c-.05.05-.1.09-.16.12s-.12.07-.18.09c-.06.02-.13.04-.19.06s-.13.02-.2.02c-.07,0-.13,0-.2-.02-.07-.01-.13-.03-.19-.06s-.12-.06-.18-.09c-.06-.04-.11-.08-.15-.12l-.93-.91s0,0,0,0l-3.35-3.25s-.02-.04-.01-.06c0-.02.03-.03.05-.03ZM123.08,101.14v-6.89s.01-.04.03-.05c.02,0,.04,0,.06.01l3.19,3.09s.02.02.02.04c0,.01,0,.03-.01.04l-3.19,3.81s-.04.03-.06.02c-.02,0-.04-.03-.04-.05ZM133.7,101.69h-10.24s-.04-.01-.05-.03c0-.02,0-.04,0-.06l3.27-3.91s.02-.02.04-.02c.02,0,.03,0,.04.02l.72.69c.14.13.3.24.48.31.18.07.37.11.56.11h0c.19,0,.38-.03.56-.11s.34-.17.48-.31l.79-.75s.03-.02.04-.01c.02,0,.03,0,.04.02l3.31,3.95s.02.04,0,.06c-.01.02-.03.03-.05.03ZM134.08,101.14s-.01.04-.04.05c-.02,0-.04,0-.06-.02l-3.22-3.85s-.01-.02-.01-.04c0-.01,0-.03.02-.04l3.22-3.06s.04-.02.06-.01c.02,0,.03.03.03.05v6.9Z"/></g><g id="MAIN_WEB"><path class="cls-10" d="M124.46,120.66h1.82c.01-.58.08-1.16.21-1.72.13-.57.31-1.12.55-1.65-.17.07-.34.15-.5.24-.16.09-.32.19-.46.31-.15.11-.29.23-.42.37s-.25.27-.37.42c-.11.15-.22.3-.31.46-.09.16-.17.33-.24.5-.07.17-.13.35-.17.53-.05.18-.08.36-.1.55Z"/><path class="cls-10" d="M128.56,116.99c-.53,0-1.27,1.41-1.37,3.67h2.73c-.09-2.25-.84-3.67-1.37-3.67Z"/><path class="cls-10" d="M128.56,125.24c.53,0,1.27-1.41,1.37-3.67h-2.73c.09,2.25.84,3.67,1.37,3.67Z"/><path class="cls-10" d="M124.46,121.58c.02.18.05.37.1.55.05.18.1.36.17.53.07.17.15.34.24.5.09.16.19.32.31.46.11.15.23.29.37.42s.27.25.42.37c.15.11.3.21.46.31.16.09.33.17.5.24-.24-.53-.42-1.08-.55-1.65-.13-.57-.2-1.14-.21-1.72h-1.82Z"/><path class="cls-10" d="M128.56,112.87c-.14,0-.27,0-.4,0-.14,0-.27.02-.4.03-.13.01-.27.03-.4.05-.13.02-.27.04-.4.07-.13.03-.26.06-.39.09-.13.03-.26.07-.39.11-.13.04-.26.08-.38.13-.13.05-.25.09-.38.15s-.25.11-.37.16c-.12.06-.24.12-.36.18-.12.06-.24.13-.35.2s-.23.14-.34.22c-.11.07-.22.15-.33.23-.11.08-.21.16-.32.25-.1.09-.21.17-.31.26-.1.09-.2.18-.29.28s-.19.19-.28.29c-.09.1-.18.2-.26.31-.09.1-.17.21-.25.32-.08.11-.16.22-.23.33-.07.11-.15.23-.22.34s-.14.23-.2.35-.12.24-.18.36c-.06.12-.11.25-.16.37s-.1.25-.15.38-.09.26-.13.38c-.04.13-.08.26-.11.39-.03.13-.06.26-.09.39-.03.13-.05.27-.07.4-.02.13-.04.27-.05.4-.01.13-.02.27-.03.4,0,.13,0,.27,0,.4s0,.27,0,.4c0,.13.02.27.03.4.01.13.03.27.05.4.02.13.04.27.07.4.03.13.06.26.09.39.03.13.07.26.11.39.04.13.08.26.13.38s.09.25.15.38c.05.13.11.25.16.37.06.12.12.24.18.36.06.12.13.24.2.35.07.12.14.23.22.34s.15.22.23.33c.08.11.16.21.25.32s.17.21.26.31c.09.1.18.2.28.29s.19.19.29.28c.1.09.2.18.31.26.1.09.21.17.32.25.11.08.22.16.33.23.11.08.23.15.34.22.12.07.23.14.35.2.12.06.24.12.36.18.12.06.25.11.37.16.12.05.25.1.38.15.13.05.26.09.38.13.13.04.26.07.39.11s.26.06.39.09c.13.03.27.05.4.07.13.02.27.04.4.05.13.01.27.02.4.03.13,0,.27.01.4.01s.27,0,.4-.01c.13,0,.27-.02.4-.03.13-.01.27-.03.4-.05.13-.02.27-.04.4-.07.13-.03.26-.06.39-.09.13-.03.26-.07.39-.11.13-.04.26-.08.38-.13.13-.05.25-.09.38-.15.13-.05.25-.11.37-.16.12-.06.24-.12.36-.18.12-.06.24-.13.35-.2.12-.07.23-.14.34-.22.11-.07.22-.15.33-.23.11-.08.21-.16.32-.25.1-.09.21-.17.31-.26.1-.09.2-.18.29-.28s.19-.19.28-.29c.09-.1.18-.2.26-.31.09-.1.17-.21.25-.32.08-.11.16-.22.23-.33.08-.11.15-.23.22-.34.07-.12.14-.23.2-.35.06-.12.12-.24.18-.36.06-.12.11-.25.16-.37.05-.12.1-.25.15-.38.05-.13.09-.26.13-.38.04-.13.07-.26.11-.39.03-.13.06-.26.09-.39.03-.13.05-.27.07-.4.02-.13.04-.27.05-.4.01-.13.02-.27.03-.4,0-.14.01-.27.01-.4,0-.14,0-.27-.01-.4s-.02-.27-.03-.4c-.01-.13-.03-.27-.05-.4-.02-.13-.04-.27-.07-.4-.03-.13-.06-.26-.09-.39s-.07-.26-.11-.39c-.04-.13-.08-.26-.13-.38-.05-.13-.09-.25-.15-.38s-.11-.25-.16-.37c-.06-.12-.12-.24-.18-.36-.06-.12-.13-.24-.2-.35-.07-.12-.14-.23-.22-.34s-.15-.22-.23-.33c-.08-.11-.16-.21-.25-.32-.09-.1-.17-.21-.26-.31-.09-.1-.18-.2-.28-.29-.1-.1-.19-.19-.29-.28-.1-.09-.2-.18-.31-.26-.1-.09-.21-.17-.32-.25-.11-.08-.22-.16-.33-.23s-.23-.15-.34-.22c-.12-.07-.23-.14-.35-.2-.12-.06-.24-.12-.36-.18-.12-.06-.25-.11-.37-.16-.12-.05-.25-.1-.38-.15-.13-.05-.25-.09-.38-.13-.13-.04-.26-.08-.39-.11-.13-.03-.26-.06-.4-.09-.13-.03-.26-.05-.4-.07-.13-.02-.27-.04-.4-.05-.13-.01-.27-.02-.4-.03-.13,0-.27-.01-.4-.01ZM128.56,126.16c-.17,0-.33,0-.49-.02-.16-.02-.33-.04-.49-.07-.16-.03-.32-.07-.48-.12s-.31-.1-.47-.17c-.15-.06-.3-.13-.45-.21s-.29-.16-.42-.25c-.14-.09-.27-.19-.4-.29-.13-.11-.25-.22-.37-.33s-.23-.24-.33-.37c-.11-.13-.2-.26-.3-.4-.09-.14-.18-.28-.25-.42s-.15-.3-.21-.45c-.06-.15-.12-.31-.17-.47-.05-.16-.09-.32-.12-.48-.03-.16-.06-.33-.07-.49-.02-.16-.02-.33-.02-.49s0-.33.02-.49c.02-.16.04-.33.07-.49.03-.16.07-.32.12-.48.05-.16.1-.31.17-.47.06-.15.13-.3.21-.45s.16-.29.25-.42c.09-.14.19-.27.3-.4.1-.13.22-.25.33-.37.12-.12.24-.23.37-.33.13-.11.26-.2.4-.3.14-.09.28-.18.42-.25s.29-.15.45-.21c.15-.06.31-.12.47-.17.16-.05.32-.09.48-.12.16-.03.32-.06.49-.07.16-.02.33-.02.49-.02s.33,0,.49.02c.16.02.33.04.49.07.16.03.32.07.48.12.16.05.31.1.47.17.15.06.3.13.45.21s.29.16.42.25c.14.09.27.19.4.3.13.1.25.22.37.33s.23.24.33.37c.1.13.2.26.29.4.09.14.18.28.25.42s.15.29.21.45c.06.15.12.31.17.47s.09.32.12.48c.03.16.06.32.07.49.02.16.02.33.02.49,0,.16,0,.33-.02.49-.02.16-.04.33-.07.49-.03.16-.07.32-.12.48-.05.16-.1.31-.17.47-.06.15-.13.3-.21.45s-.16.29-.25.42c-.09.14-.19.27-.29.4-.11.13-.22.25-.33.37-.12.12-.24.23-.37.33-.13.1-.26.2-.4.29-.14.09-.28.18-.42.25s-.29.15-.45.21c-.15.06-.31.12-.47.17-.16.05-.32.09-.48.12-.16.03-.33.06-.49.07-.16.02-.33.02-.49.02Z"/><path class="cls-10" d="M130.08,117.29c.24.53.42,1.08.55,1.65.13.57.2,1.14.21,1.72h1.82c-.02-.18-.05-.37-.1-.55-.05-.18-.1-.36-.17-.53-.07-.17-.15-.34-.24-.5-.09-.16-.19-.32-.31-.46-.11-.15-.24-.29-.37-.42-.13-.13-.27-.25-.42-.37-.15-.11-.3-.21-.46-.31-.16-.09-.33-.17-.5-.24Z"/><path class="cls-10" d="M130.08,124.95c.17-.07.34-.15.5-.24.16-.09.32-.19.46-.31.15-.11.29-.23.42-.37.13-.13.25-.27.37-.42.11-.15.21-.3.31-.46.09-.16.17-.33.24-.5.07-.17.13-.35.17-.53.05-.18.08-.36.1-.55h-1.82c0,.58-.08,1.16-.21,1.72-.13.57-.31,1.12-.55,1.65Z"/></g><text class="cls-18" transform="translate(143.65 78.58)"><tspan x="0" y="0">912-489-7917</tspan></text><text class="cls-18" transform="translate(143.69 101.91)"><tspan x="0" y="0">DERRICK.MATHIS@FBCBORO.CHURCH</tspan></text><text class="cls-18" transform="translate(143.67 125.28)"><tspan x="0" y="0">FBCBORO.CHURCH</tspan></text><g id="MAIN_GRAPHIC_LOGO"><g id="FB_Profile"><path class="cls-6" d="M63.92,25.44h0v18.43l20.29-10.27c-5.27-5.05-12.41-8.17-20.29-8.17Z"/><path class="cls-8" d="M84.21,33.6l-20.29,10.27v13.43l27.1-13.72c-1.56-3.79-3.9-7.18-6.82-9.98Z"/><path class="cls-9" d="M63.92,57.3v7.42h29.31v-9.97c0-3.95-.79-7.72-2.21-11.16l-27.1,13.72h0Z"/><polygon class="cls-15" points="58.62 59.98 58.62 46.56 47.95 51.95 47.95 64.72 49.26 64.72 58.62 59.98"/><polygon class="cls-8" points="58.62 64.72 58.62 59.98 49.26 64.72 58.62 64.72"/><path class="cls-6" d="M58.62,46.56v-21.12c-3.77,0-7.36.72-10.67,2.01v24.51l10.67-5.4Z"/><path class="cls-3" d="M29.3,54.75v.72c0,1.93.19,3.81.55,5.64.24,1.23.56,2.44.95,3.61h17.15V27.45c-10.91,4.27-18.64,14.88-18.64,27.3Z"/><path class="cls-3" d="M33.18,70.03c3.31,5.77,8.51,10.3,14.77,12.75v-12.75h-14.77Z"/><path class="cls-8" d="M58.62,70.03h-10.67v12.75c3.31,1.29,6.9,2,10.67,2v-14.75Z"/><polygon class="cls-3" points="47.95 106.14 58.62 100.74 58.62 100.68 47.95 95.14 47.95 106.14"/><path class="cls-1" d="M32.75,113.84c2.95,5.91,8.84,11.03,15.2,13.52v-21.22l-15.2,7.7h0Z"/><polygon class="cls-7" points="58.62 100.68 58.62 90.09 47.95 90.09 47.95 95.29 58.62 100.68"/><path class="cls-12" d="M47.95,95.29l-10.21-5.2h-8.43v9.97c0,5.18,1.09,9.56,3.44,13.78l15.2-7.7v-10.85h0Z"/><polygon class="cls-4" points="47.95 90.09 37.59 90.09 47.95 95.29 47.95 90.09"/><path class="cls-14" d="M47.95,106.14v21.22c3.31,1.29,6.9,2.01,10.67,2.01h0v-28.63l-10.67,5.4h0Z"/><path class="cls-9" d="M63.92,70.03h0v28.09l25.62-12.95c-4.4-8.41-15.38-15.15-25.62-15.15h0Z"/><path class="cls-2" d="M93.23,100.27c-.08-5.8-1.59-11.87-3.68-15.09l-25.62,12.95v5.3l11.58,5.9,17.72-9.06Z"/><path class="cls-5" d="M63.92,115.6v13.76h0c7.65,0,18.32-4.25,24.66-13.41l-13.08-6.63-11.58,6.28h0Z"/><polygon class="cls-11" points="63.92 103.42 63.92 115.6 75.5 109.32 63.92 103.42"/><path class="cls-13" d="M93.23,100.07c0-.13,0,.04,0-.09l-17.72,9.35,13.08,6.63c3.09-4.35,4.94-10.27,4.65-15.9h0s0,.01,0,.01Z"/></g></g></svg>